<svg height="512pt" fill="#3E89A5" viewBox="-126 0 512 512" width="512pt" xmlns="http://www.w3.org/2000/svg"><path d="m230 132h-23.777344c.835938-3.242188 1.277344-6.597656 1.277344-10 0-22.058594-17.945312-40-40-40s-40 17.941406-40 40c0 3.402344.441406 6.757812 1.277344 10h-8.777344c-5.523438 0-10 4.476562-10 10s4.476562 10 10 10h110c5.515625 0 10 4.484375 10 10v10h-220v-10c0-5.515625 4.484375-10 10-10 5.523438 0 10-4.476562 10-10s-4.476562-10-10-10c-16.542969 0-30 13.457031-30 30v20c0 5.523438 4.476562 10 10 10h.3125l4.484375 140.320312c.417969 13.046876 8.378906 23.875 19.425781 27.949219l3.898438 122.050781c.53125 16.644532 13.339844 29.679688 29.164062 29.679688h125.429688c15.820312 0 28.632812-13.035156 29.164062-29.679688l3.898438-122.050781c11.046875-4.074219 19.007812-14.902343 19.425781-27.949219l4.484375-140.320312h.3125c5.523438 0 10-4.476562 10-10v-20c0-16.542969-13.457031-30-30-30zm-82.5-10c0-11.027344 8.972656-20 20-20s20 8.972656 20 20c0 3.542969-.949219 6.980469-2.695312 10h-34.609376c-1.746093-3.019531-2.695312-6.457031-2.695312-10zm77.710938 209.683594c-.183594 5.785156-4.214844 10.316406-9.171876 10.316406-5.398437 0-9.824218 4.285156-9.996093 9.679688l-3.203125 100.320312h-45.3125c-5.523438 0-10 4.476562-10 10 0 5.519531 4.476562 10 10 10h44.671875l-.308594 9.679688c-.1875 5.789062-4.214844 10.320312-9.175781 10.320312h-125.429688c-4.960937 0-8.992187-4.53125-9.175781-10.320312l-4.15625-130c-.171875-5.394532-4.59375-9.679688-9.992187-9.679688-4.960938 0-8.988282-4.53125-9.175782-10.320312l-4.460937-139.679688h199.351562zm0 0"/><path d="m160.113281 331.683594c5.523438 0 10-4.480469 10-10.003906 0-5.523438-4.476562-10-10-10-5.523437 0-10 4.480468-10 10v.007812c0 5.523438 4.476563 9.996094 10 9.996094zm0 0"/><path d="m96.113281 375.679688v.007812c0 5.523438 4.476563 9.996094 10 9.996094 5.523438 0 10-4.480469 10-10.003906 0-5.523438-4.476562-10-10-10-5.523437 0-10 4.476562-10 10zm0 0"/><path d="m154.113281 425.683594c5.523438 0 10-4.480469 10-10.003906 0-5.523438-4.476562-10-10-10-5.523437 0-10 4.480468-10 10v.007812c0 5.523438 4.476563 9.996094 10 9.996094zm0 0"/><path d="m112.523438 452c-5.523438 0-9.996094 4.476562-9.996094 10 0 5.519531 4.480468 10 10.003906 10s10-4.480469 10-10c0-5.523438-4.476562-10-10-10zm0 0"/><path d="m90 60c16.542969 0 30-13.457031 30-30s-13.457031-30-30-30-30 13.457031-30 30 13.457031 30 30 30zm0-40c5.515625 0 10 4.484375 10 10s-4.484375 10-10 10-10-4.484375-10-10 4.484375-10 10-10zm0 0"/><path d="m62.5 106.390625c5.523438 0 10-4.480469 10-10.003906 0-5.523438-4.476562-10-10-10s-10 4.480469-10 10v.007812c0 5.523438 4.476562 9.996094 10 9.996094zm0 0"/><path d="m176.5 50.390625c5.519531 0 10-4.480469 10-10.003906 0-5.523438-4.480469-10-10-10-5.523438 0-10 4.480469-10 10v.007812c0 5.523438 4.476562 9.996094 10 9.996094zm0 0"/><path d="m100.859375 279.890625c5.523437 0 10-4.480469 10-10.003906 0-5.523438-4.476563-10-10-10s-10 4.476562-10 10v.007812c0 5.523438 4.476563 9.996094 10 9.996094zm0 0"/><path d="m186.859375 238.890625c5.523437 0 10-4.480469 10-10.003906 0-5.523438-4.476563-10-10-10-5.519531 0-10 4.476562-10 10v.007812c0 5.523438 4.476563 9.996094 10 9.996094zm0 0"/><path d="m74.996094 132c-5.523438 0-9.996094 4.476562-9.996094 10s4.480469 10 10.003906 10c5.519532 0 10-4.476562 10-10s-4.480468-10-10-10zm0 0"/></svg>